<?xml version="1.0" encoding="UTF-8"?>
<svg width="240px" height="30px" viewBox="0 0 240 30" version="1.1" xmlns="http://www.w3.org/2000/svg" xmlns:xlink="http://www.w3.org/1999/xlink">
    <title>ChoerodonUI_logo</title>
    <defs>
        <linearGradient x1="50%" y1="50%" x2="100%" y2="100%" id="linearGradient-1">
            <stop stop-color="#000000" stop-opacity="0" offset="0%"></stop>
            <stop stop-color="#000000" stop-opacity="0.3" offset="100%"></stop>
        </linearGradient>
        <linearGradient x1="57.4301323%" y1="71.5099006%" x2="18.8259526%" y2="16.4863722%" id="linearGradient-2">
            <stop stop-color="#000000" stop-opacity="0" offset="0%"></stop>
            <stop stop-color="#000000" stop-opacity="0.4" offset="100%"></stop>
        </linearGradient>
    </defs>
    <g id="页面-1" stroke="none" stroke-width="1" fill="none" fill-rule="evenodd">
        <g id="登录" transform="translate(-60.000000, -60.000000)" fill-rule="nonzero">
            <g id="ChoerodonUI_logo" transform="translate(60.000000, 60.000000)">
                <g id="分组-18" transform="translate(57.414405, 3.666288)" fill="#0F1358">
                    <path d="M11.9101509,21.8454214 C15.5775516,21.8454214 18.4616241,20.4276901 20.5623682,17.5922274 L20.5623682,17.5922274 L18.7731751,16.1651688 C16.9216718,18.4223464 14.7408146,19.5509351 12.2306034,19.5509351 C9.72039222,19.5509351 7.67750759,18.7534613 6.10194951,17.1585135 C4.52639143,15.5635657 3.73861239,13.5768764 3.73861239,11.1984455 C3.73861239,8.82001457 4.54419435,6.81000729 6.15535826,5.16842361 C7.76652217,3.52683993 9.68478639,2.70604809 11.9101509,2.70604809 C14.6339971,2.70604809 16.9216718,3.88127277 18.7731751,6.23172213 L18.7731751,6.23172213 L20.5356638,4.80466359 C19.5387005,3.34962351 18.2969471,2.24435268 16.8104036,1.48885111 C15.3238601,0.733349526 13.6414845,0.355598737 11.7632768,0.355598737 C9.88506919,0.355598737 8.13593268,0.821957736 6.51586731,1.75467573 C4.89580194,2.68739373 3.62734417,3.97454457 2.71049398,5.61612825 C1.7936438,7.25771193 1.33521871,9.04853048 1.33521871,10.9885839 C1.33521871,14.1225164 2.32328056,16.7154724 4.29940425,18.767452 C6.27552794,20.8194316 8.8124435,21.8454214 11.9101509,21.8454214 Z M25.8498343,21.3417537 L25.8509618,15.2955026 C25.8614853,13.4987146 25.9456733,12.2869274 26.1035258,11.6601409 C26.2726535,10.9885839 26.5797538,10.3543357 27.0248267,9.75739616 C27.4698996,9.16045664 28.0039871,8.69409764 28.6270892,8.35831916 C29.2501912,8.02254068 29.9044484,7.85465145 30.5898607,7.85465145 C31.275273,7.85465145 31.8627692,7.98989556 32.3523494,8.26038377 C32.8419296,8.53087199 33.229143,8.92261355 33.5139897,9.43560845 C33.7988363,9.94860335 33.9813162,10.4942434 34.0614293,11.0725285 C34.1415425,11.6508137 34.181599,12.648822 34.181599,14.0665533 L34.181599,14.0665533 L34.181599,21.3417537 L36.3980621,21.3417537 L36.3980621,13.5069225 C36.3980621,11.4362886 36.1844271,9.90196745 35.7571571,8.90395919 C35.3298871,7.90595094 34.6889821,7.12246782 33.8344422,6.55350984 C32.9799022,5.98455186 32.0274462,5.70007287 30.9770741,5.70007287 C29.0009504,5.70007287 27.2918705,6.59548215 25.8498343,8.3863007 L25.8498343,8.3863007 L25.8498343,0.355598737 L23.6333712,0.355598737 L23.6333712,21.3417537 L25.8498343,21.3417537 Z M46.8394724,21.8454214 C48.9758223,21.8454214 50.7694661,21.0572747 52.2204038,19.4809813 C53.6713415,17.9046879 54.3968103,16.0066068 54.3968103,13.7867379 C54.3968103,11.5668691 53.66244,9.66412436 52.1936994,8.07850376 C50.7249589,6.49288317 48.9402165,5.70007287 46.8394724,5.70007287 C44.7209254,5.70007287 42.9272816,6.49288317 41.458541,8.07850376 C39.9898004,9.66412436 39.2554301,11.5668691 39.2554301,13.7867379 C39.2554301,16.0066068 39.9853497,17.9046879 41.4451888,19.4809813 C42.9050279,21.0572747 44.7031225,21.8454214 46.8394724,21.8454214 Z M46.8394724,19.6348798 C45.3084216,19.6348798 44.0355131,19.075249 43.0207469,17.9559874 C42.0059807,16.8367258 41.4985976,15.4749575 41.4985976,13.8706825 C41.4985976,12.2664076 42.0237836,10.8813214 43.0741556,9.71542385 C44.1245277,8.54952635 45.3751825,7.96657761 46.8261202,7.96657761 C48.2770579,7.96657761 49.5321635,8.54952635 50.591437,9.71542385 C51.6507105,10.8813214 52.1803472,12.261744 52.1803472,13.8566918 C52.1803472,15.4516395 51.659612,16.8134078 50.6181414,17.9419966 C49.5766708,19.0705854 48.3171144,19.6348798 46.8394724,19.6348798 Z M64.3041332,21.8454214 C65.8885927,21.8454214 67.2505158,21.4583435 68.3899024,20.6841875 C69.529289,19.9100316 70.5173509,18.7114889 71.3540879,17.0885596 L71.3540879,17.0885596 L69.4847818,16.0812242 C68.2563805,18.4876366 66.4760889,19.6908428 64.1439069,19.6908428 C62.7730824,19.6908428 61.5936392,19.1825115 60.6055773,18.1658489 C59.6175155,17.1491863 59.0789773,15.8014088 58.9899627,14.1225164 L58.9899627,14.1225164 L71.7546536,14.1225164 C71.7012448,11.510906 70.9624238,9.45426281 69.5381905,7.95258684 C68.1139572,6.45091086 66.3425671,5.70007287 64.22402,5.70007287 C62.105473,5.70007287 60.3296321,6.49288317 58.8964974,8.07850376 C57.4633626,9.66412436 56.7467952,11.5668691 56.7467952,13.7867379 C56.7467952,16.0066068 57.4589119,17.9046879 58.8831452,19.4809813 C60.3073785,21.0572747 62.1143745,21.8454214 64.3041332,21.8454214 Z M69.2978511,12.079864 L59.2570064,12.079864 C60.0759406,9.3190187 61.7316118,7.93859607 64.22402,7.93859607 C65.4524212,7.93859607 66.5383991,8.30235608 67.4819537,9.02987612 C68.4255082,9.75739616 69.0308074,10.7740588 69.2978511,12.079864 L69.2978511,12.079864 Z M76.0540578,21.3417537 L76.0540578,16.1092057 C76.0540578,13.7027933 76.165326,12.0378917 76.3878625,11.1145009 C76.6103989,10.19111 76.9442036,9.44493563 77.3892765,8.87597765 C77.8343494,8.30701967 78.3328311,8.02254068 78.8847215,8.02254068 C79.1695681,8.02254068 79.4633163,8.1064853 79.7659658,8.27437454 L79.7659658,8.27437454 L80.9142539,6.31566675 C80.1843344,5.90527083 79.5300772,5.70007287 78.9514824,5.70007287 C78.3728876,5.70007287 77.8566031,5.86796211 77.4026287,6.20374059 C76.9486543,6.53951907 76.4991307,7.05251397 76.0540578,7.74272529 L76.0540578,7.74272529 L76.0540578,6.09181443 L73.8108904,6.09181443 L73.8108904,21.3417537 L76.0540578,21.3417537 Z M89.7266974,21.8454214 C91.8630474,21.8454214 93.6566912,21.0572747 95.1076288,19.4809813 C96.5585665,17.9046879 97.2840353,16.0066068 97.2840353,13.7867379 C97.2840353,11.5668691 96.549665,9.66412436 95.0809245,8.07850376 C93.6121839,6.49288317 91.8274415,5.70007287 89.7266974,5.70007287 C87.6081504,5.70007287 85.8145066,6.49288317 84.345766,8.07850376 C82.8770254,9.66412436 82.1426551,11.5668691 82.1426551,13.7867379 C82.1426551,16.0066068 82.8725747,17.9046879 84.3324138,19.4809813 C85.7922529,21.0572747 87.5903475,21.8454214 89.7266974,21.8454214 Z M89.7266974,19.6348798 C88.1956466,19.6348798 86.9227381,19.075249 85.9079719,17.9559874 C84.8932057,16.8367258 84.3858226,15.4749575 84.3858226,13.8706825 C84.3858226,12.2664076 84.9110086,10.8813214 85.9613807,9.71542385 C87.0117527,8.54952635 88.2624076,7.96657761 89.7133452,7.96657761 C91.1642829,7.96657761 92.4193885,8.54952635 93.478662,9.71542385 C94.5379355,10.8813214 95.0675723,12.261744 95.0675723,13.8566918 C95.0675723,15.4516395 94.546837,16.8134078 93.5053664,17.9419966 C92.4638958,19.0705854 91.2043395,19.6348798 89.7266974,19.6348798 Z M107.178006,21.8454214 C109.252046,21.8454214 111.081295,20.9313578 112.665755,19.1032305 L112.665755,19.1032305 L112.665755,21.3417537 L114.828809,21.3417537 L114.828809,0.355598737 L112.665755,0.355598737 L112.665755,8.41428224 C111.223719,6.60480933 109.438976,5.70007287 107.311528,5.70007287 C105.184079,5.70007287 103.381534,6.48821958 101.903892,8.06451299 C100.42625,9.64080641 99.687429,11.5388875 99.687429,13.7587564 C99.687429,15.9786252 100.417349,17.8813699 101.877188,19.4669905 C103.337027,21.0526111 105.103966,21.8454214 107.178006,21.8454214 Z M107.351584,19.6908428 C105.856139,19.6908428 104.574329,19.1032305 103.506155,17.9280058 C102.43798,16.7527812 101.903892,15.3770221 101.903892,13.8007287 C101.903892,12.2244353 102.424627,10.8533398 103.466098,9.68744231 C104.507569,8.52154481 105.807181,7.93859607 107.364937,7.93859607 C108.922692,7.93859607 110.213403,8.50289045 111.237071,9.63147923 C112.260739,10.760068 112.772572,12.1684722 112.772572,13.8566918 C112.772572,15.5449113 112.220682,16.9393248 111.116901,18.039932 C110.01312,19.1405392 108.758015,19.6908428 107.351584,19.6908428 Z M125.510559,21.8454214 C127.646909,21.8454214 129.440553,21.0572747 130.89149,19.4809813 C132.342428,17.9046879 133.067897,16.0066068 133.067897,13.7867379 C133.067897,11.5668691 132.333527,9.66412436 130.864786,8.07850376 C129.396045,6.49288317 127.611303,5.70007287 125.510559,5.70007287 C123.392012,5.70007287 121.598368,6.49288317 120.129627,8.07850376 C118.660887,9.66412436 117.926517,11.5668691 117.926517,13.7867379 C117.926517,16.0066068 118.656436,17.9046879 120.116275,19.4809813 C121.576114,21.0572747 123.374209,21.8454214 125.510559,21.8454214 Z M125.510559,19.6348798 C123.979508,19.6348798 122.7066,19.075249 121.691833,17.9559874 C120.677067,16.8367258 120.169684,15.4749575 120.169684,13.8706825 C120.169684,12.2664076 120.69487,10.8813214 121.745242,9.71542385 C122.795614,8.54952635 124.046269,7.96657761 125.497207,7.96657761 C126.948144,7.96657761 128.20325,8.54952635 129.262523,9.71542385 C130.321797,10.8813214 130.851434,12.261744 130.851434,13.8566918 C130.851434,15.4516395 130.330698,16.8134078 129.289228,17.9419966 C128.247757,19.0705854 126.988201,19.6348798 125.510559,19.6348798 Z M138.301954,21.3417537 L138.303082,15.2955026 C138.313605,13.4987146 138.397793,12.2869274 138.555646,11.6601409 C138.724773,10.9885839 139.031874,10.3543357 139.476947,9.75739616 C139.92202,9.16045664 140.456107,8.69409764 141.079209,8.35831916 C141.702311,8.02254068 142.338765,7.85465145 142.988572,7.85465145 C143.638378,7.85465145 144.190269,7.95725043 144.644243,8.16244838 C145.098217,8.36764634 145.472079,8.68010687 145.765827,9.09982997 C146.059575,9.51955307 146.282111,10.032548 146.433436,10.6388147 C146.584761,11.2450814 146.660423,12.3876609 146.660423,14.0665533 L146.660423,14.0665533 L146.660423,21.3417537 L148.850182,21.3417537 L148.850182,13.5069225 C148.850182,11.4362886 148.636547,9.90196745 148.209277,8.90395919 C147.782007,7.90595094 147.141102,7.12246782 146.286562,6.55350984 C145.432022,5.98455186 144.479566,5.70007287 143.429194,5.70007287 C141.45307,5.70007287 139.74399,6.59548215 138.301954,8.3863007 L138.301954,8.3863007 L138.301954,6.09181443 L136.085491,6.09181443 L136.085491,21.3417537 L138.301954,21.3417537 Z M167.154616,21.8454214 C168.525441,21.8454214 170.722687,21.4723342 171.746355,20.7261598 C172.770022,19.9799854 173.482139,19.051931 173.882705,17.9419966 C174.28327,16.8320622 174.483553,15.241778 174.483553,13.171144 L174.483553,0.859266456 L172.213681,0.859266456 L172.213681,13.171144 C172.213681,14.7008016 172.111315,15.8527083 171.906581,16.6268642 C171.701848,17.4010202 171.247873,18.0819043 170.544658,18.6695166 C169.841443,19.257129 168.009156,19.5509351 167.047799,19.5509351 C166.246668,19.5509351 164.5301,19.3877095 163.898097,19.0612582 C163.266093,18.7348069 162.780964,18.2964294 162.442708,17.7461258 C162.104453,17.1958222 161.89972,16.6268642 161.828508,16.0392519 C161.757296,15.4516395 161.72169,14.4956036 161.72169,13.171144 L161.72169,0.859266456 L159.425114,0.859266456 L159.425114,13.171144 C159.425114,15.2790867 159.549735,16.7387904 159.798975,17.550255 C160.048216,18.3617197 160.462134,19.0985669 161.040729,19.7607967 C161.619324,20.4230265 162.344792,20.9360214 163.217135,21.2997814 C164.089478,21.6635414 166.068639,21.8454214 167.154616,21.8454214 Z M180.865899,21.3417537 L180.865899,0.859266456 L178.569322,0.859266456 L178.569322,21.3417537 L180.865899,21.3417537 Z" id="ChoerodonUI"></path>
                </g>
                <g id="编组">
                    <path d="M26.6273088,0 C34.7815011,0 41.3917801,6.50198032 41.3917801,14.6136106 C41.3917801,22.7252408 34.5750721,29.3748117 26.6273088,29.3748117 C22.3252773,29.3748117 18.3448006,26.8672058 15.8807916,24.3903979 C14.2381189,22.7391927 12.4255759,20.8169369 10.4431626,18.6236306 L4.93330539,24.1884483 C3.81679555,25.3160588 1.99278018,25.3297821 0.859253042,24.2191 C-0.251140887,23.1310849 -0.287039904,21.3676912 0.761494967,20.2361966 L0.82844051,20.1663128 L6.39913789,14.6136106 L0.82844051,8.91349492 L0.761494967,8.84361112 C-0.287039904,7.71211653 -0.251140887,5.94872278 0.859253042,4.86070771 C1.96866258,3.77365719 3.73949045,3.76367393 4.86109142,4.82089712 L4.93330539,4.89135941 L10.4431626,10.456 C12.4255759,8.31764942 14.2381189,6.39862451 15.8807916,4.69892529 C18.3448006,2.14937646 22.3509468,0 26.6273088,0 Z M26.6273088,5.73167057 C21.6552404,5.73167057 17.6245825,9.66749456 17.6245825,14.6136106 C17.6245825,19.5597266 21.6552404,23.6431411 26.6273088,23.6431411 C31.5993773,23.6431411 35.6300352,19.5597266 35.6300352,14.6136106 C35.6300352,9.66749456 31.5993773,5.73167057 26.6273088,5.73167057 Z" id="形状" fill="#5A6EFF"></path>
                    <path d="M0.834296547,4.83995268 C1.92302396,3.75122527 3.67380733,3.72806086 4.79070733,4.77045944 L4.86263662,4.83995268 L9.84745315,9.8247692 C10.1103544,10.0876705 10.3256914,10.414706 10.6817497,10.7707643 C9.2575164,12.1949976 7.83328311,13.6192309 6.76510814,14.6874058 L5.81911307,13.8531093 L0.834296547,8.86829276 C-0.278098849,7.75589736 -0.278098849,5.95234808 0.834296547,4.83995268 Z" id="直线-2" fill="url(#linearGradient-1)"></path>
                    <path d="M17.3578433,14.6213926 C17.3578433,16.848004 18.3419066,18.8791731 19.9304759,20.3477128 L20.0282807,21.2064148 L15.9497944,24.0339368 L10.6817497,18.8501465 L18.0681246,11.4527985 C17.6111243,12.4210524 17.3578433,13.4917678 17.3578433,14.6213926 Z" id="形状结合" fill="url(#linearGradient-2)"></path>
                </g>
            </g>
        </g>
    </g>
</svg>